<?xml version="1.0" encoding="UTF-8"?>
<svg id="Warstwa_1" data-name="Warstwa 1" xmlns="http://www.w3.org/2000/svg" viewBox="0 0 125.3 125.09">
  <defs>
    <style>
      .cls-1 {
        stroke-width: 4px;
      }

      .cls-1, .cls-2, .cls-3 {
        fill: none;
        stroke-linecap: round;
        stroke-linejoin: round;
      }

      .cls-1, .cls-3 {
        stroke: #000;
      }

      .cls-2 {
        stroke: #e41926;
      }

      .cls-4 {
        fill: #3a3a3a;
      }

      .cls-3 {
        stroke-width: 3px;
      }

      .cls-5 {
        fill: #e4f3f8;
      }

      .cls-6 {
        fill: #89cfe4;
      }

      .cls-7 {
        fill: #1d1d1b;
      }
    </style>
  </defs>
  <path class="cls-7" d="m70.73,10.51V3.64c0-2.01-1.63-3.64-3.64-3.64h-18.18c-2.01,0-3.64,1.63-3.64,3.64v6.87C15.02,17.29-6.32,47.69,1.7,81.35c4.91,20.61,21.05,36.9,41.63,41.95,38.38,9.41,72.67-19.39,72.67-56.2,0-27.66-19.36-50.78-45.27-56.58Zm.69,105.76C32.96,126.1-1.01,92.13,8.82,53.68c4.47-17.49,18.27-31.29,35.76-35.76,38.45-9.83,72.43,24.14,62.6,62.6-4.47,17.49-18.27,31.29-35.76,35.76Z"/>
  <g>
    <ellipse class="cls-7" cx="58" cy="25.39" rx="4.36" ry="4.31"/>
    <ellipse class="cls-7" cx="58" cy="109.77" rx="4.36" ry="4.31"/>
    <ellipse class="cls-7" cx="36.9" cy="31.44" rx="4.31" ry="4.26"/>
    <ellipse class="cls-7" cx="79.1" cy="103.73" rx="4.31" ry="4.26"/>
    <ellipse class="cls-7" cx="21.46" cy="46.71" rx="4.31" ry="4.26"/>
    <ellipse class="cls-7" cx="94.54" cy="88.45" rx="4.31" ry="4.26"/>
    <ellipse class="cls-7" cx="15.81" cy="67.58" rx="4.31" ry="4.26"/>
    <ellipse class="cls-7" cx="100.19" cy="67.58" rx="4.31" ry="4.26"/>
    <ellipse class="cls-7" cx="21.46" cy="88.45" rx="4.31" ry="4.26"/>
    <ellipse class="cls-7" cx="94.54" cy="46.71" rx="4.31" ry="4.26"/>
    <ellipse class="cls-7" cx="36.9" cy="103.73" rx="4.31" ry="4.26"/>
    <ellipse class="cls-7" cx="79.1" cy="31.44" rx="4.31" ry="4.26"/>
  </g>
  <line class="cls-1" x1="58" y1="35.01" x2="58" y2="71.88"/>
  <line class="cls-3" x1="84.53" y1="48.68" x2="54.5" y2="70.07"/>
  <line class="cls-2" x1="64.96" y1="67.18" x2="22.99" y2="74.99"/>
  <circle class="cls-4" cx="58" cy="67.58" r="3.5"/>
  <g>
    <g>
      <g>
        <g>
          <path class="cls-6" d="m104.49,90.04c-.81,0-1.57-.4-2.02-1.08l-5.35-7.95c-.56-.82-.56-1.89,0-2.72l1.22-1.82c.45-.67,1.21-1.08,2.02-1.08s1.57.4,2.02,1.08l2.11,3.13,2.11-3.13c.45-.67,1.21-1.07,2.02-1.07s1.57.4,2.02,1.08l1.22,1.82c.55.83.55,1.89,0,2.72l-5.35,7.95c-.45.67-1.21,1.08-2.02,1.08Z"/>
          <path class="cls-5" d="m108.62,77.15c.22,0,.43.1.57.3l1.22,1.82c.15.23.15.53,0,.76l-5.35,7.95c-.14.2-.35.3-.57.3s-.43-.1-.57-.3l-5.35-7.95c-.16-.23-.16-.53,0-.76l1.22-1.82c.14-.2.35-.3.57-.3s.43.1.57.3l2.99,4.44c.14.2.35.3.57.3s.43-.1.57-.3l2.99-4.44c.14-.2.35-.3.57-.3m0-3.5c-1.39,0-2.69.69-3.47,1.85l-.66.98-.66-.98c-.78-1.16-2.08-1.85-3.47-1.85-1.4,0-2.7.69-3.47,1.85l-1.22,1.82c-.95,1.42-.95,3.25,0,4.67l5.35,7.95c.78,1.16,2.08,1.85,3.47,1.85s2.69-.69,3.47-1.85l5.35-7.95c.95-1.42.95-3.25,0-4.67l-1.22-1.82c-.78-1.16-2.08-1.85-3.47-1.85h0Z"/>
        </g>
        <g>
          <path class="cls-6" d="m108.63,113.86c-.81,0-1.56-.4-2.02-1.07l-2.11-3.13-2.11,3.13c-.45.67-1.21,1.07-2.02,1.07h0c-.81,0-1.57-.4-2.02-1.08l-1.22-1.82c-.55-.82-.55-1.89,0-2.71l5.35-7.95c.46-.67,1.21-1.07,2.02-1.07s1.56.4,2.02,1.07l5.35,7.95c.55.83.55,1.89,0,2.71l-1.22,1.82c-.45.67-1.21,1.08-2.02,1.08Z"/>
          <path class="cls-5" d="m104.51,100.98c.22,0,.43.1.57.3l5.35,7.95c.16.23.16.53,0,.76l-1.22,1.82c-.14.2-.35.3-.57.3s-.43-.1-.57-.3l-2.99-4.44c-.14-.2-.35-.3-.57-.3s-.43.1-.57.3l-2.99,4.44c-.14.2-.35.3-.57.3s-.43-.1-.57-.3l-1.22-1.82c-.15-.23-.15-.53,0-.76l5.35-7.95c.14-.2.35-.3.57-.3m0-3.5c-1.39,0-2.69.69-3.47,1.85l-5.35,7.95c-.95,1.42-.95,3.25,0,4.67l1.22,1.82c.78,1.16,2.08,1.85,3.47,1.85s2.69-.69,3.47-1.85l.66-.98.66.98c.78,1.16,2.08,1.85,3.47,1.85s2.69-.69,3.47-1.85l1.22-1.82c.95-1.42.95-3.25,0-4.67l-5.35-7.95c-.78-1.16-2.08-1.85-3.47-1.85h0Z"/>
        </g>
      </g>
      <g>
        <g>
          <path class="cls-6" d="m88.85,94.21c-.92,0-1.78-.54-2.19-1.36l-.96-1.97c-.36-.73-.33-1.58.08-2.29.4-.7,1.13-1.16,1.94-1.21l3.77-.26-1.66-3.39c-.36-.73-.33-1.58.08-2.28.41-.7,1.13-1.16,1.94-1.21l2.24-.15h.11c.92,0,1.78.53,2.19,1.36l4.21,8.6c.36.73.33,1.58-.08,2.29-.41.7-1.13,1.15-1.94,1.21l-9.62.66h-.11Z"/>
          <path class="cls-5" d="m94.2,81.84c.26,0,.5.15.61.38l4.21,8.6c.21.44-.08.95-.57.98l-9.56.66s-.03,0-.05,0c-.26,0-.5-.15-.61-.38l-.96-1.97c-.21-.44.08-.95.57-.98l5.34-.37c.48-.03.78-.55.57-.98l-2.35-4.81c-.21-.44.08-.95.57-.98l2.19-.15s.03,0,.05,0m0-3.5h-.28s-2.19.16-2.19.16c-1.39.09-2.64.87-3.34,2.08s-.75,2.68-.14,3.93l.52,1.06-1.17.08c-1.39.1-2.64.88-3.34,2.08-.7,1.21-.75,2.68-.13,3.93l.96,1.97c.7,1.42,2.17,2.34,3.76,2.34h.29s9.56-.67,9.56-.67c1.39-.1,2.64-.87,3.34-2.08.7-1.21.75-2.68.14-3.93l-4.21-8.6c-.7-1.42-2.17-2.35-3.76-2.35h0Z"/>
        </g>
        <g>
          <path class="cls-6" d="m114.8,109.18c-.92,0-1.78-.54-2.19-1.36l-4.21-8.6c-.36-.73-.33-1.58.08-2.29.41-.7,1.13-1.15,1.94-1.21l9.62-.66h.11c.92,0,1.78.53,2.19,1.36l.96,1.96c.36.73.33,1.58-.08,2.29-.41.7-1.13,1.16-1.94,1.21l-3.76.26,1.66,3.39c.36.73.33,1.58-.08,2.29-.41.7-1.13,1.15-1.94,1.21l-2.24.15h-.11Z"/>
          <path class="cls-5" d="m120.15,96.8c.26,0,.5.15.61.38l.96,1.97c.21.44-.08.95-.57.98l-5.34.37c-.48.03-.78.55-.57.98l2.35,4.81c.21.44-.08.95-.57.98l-2.19.15s-.03,0-.05,0c-.26,0-.5-.15-.61-.38l-4.21-8.6c-.21-.44.08-.95.57-.98l9.56-.66s.03,0,.05,0m0-3.5h-.29s-9.56.67-9.56.67c-1.39.1-2.64.87-3.34,2.08-.7,1.21-.75,2.68-.14,3.93l4.21,8.6c.7,1.42,2.17,2.35,3.76,2.35h.28s2.19-.16,2.19-.16c1.39-.09,2.64-.87,3.34-2.08s.75-2.68.14-3.93l-.52-1.06,1.17-.08c1.39-.1,2.64-.88,3.34-2.08.7-1.21.75-2.68.13-3.93l-.96-1.97c-.7-1.42-2.17-2.34-3.76-2.34h0Z"/>
        </g>
      </g>
      <g>
        <g>
          <path class="cls-6" d="m94.04,109.19l-2.18-.15c-.81-.05-1.54-.51-1.94-1.21s-.44-1.56-.08-2.29l1.66-3.39-3.77-.26c-.81-.06-1.53-.51-1.94-1.21s-.44-1.56-.08-2.29l.97-1.97c.41-.83,1.26-1.36,2.18-1.36h.17s9.56.66,9.56.66c.81.06,1.53.51,1.94,1.21.41.7.44,1.56.08,2.29l-4.21,8.61c-.41.83-1.26,1.36-2.19,1.36h-.17Z"/>
          <path class="cls-5" d="m88.86,96.81s.03,0,.05,0l9.56.66c.48.03.78.55.57.98l-4.21,8.6c-.12.24-.35.38-.61.38-.02,0-.03,0-.05,0l-2.19-.15c-.48-.03-.78-.55-.57-.98l2.35-4.81c.21-.44-.08-.95-.57-.98l-5.34-.37c-.48-.03-.78-.55-.57-.98l.96-1.97c.12-.24.35-.38.61-.38m0-3.5c-1.58,0-3.06.92-3.76,2.34l-.96,1.97c-.61,1.25-.57,2.72.13,3.93.7,1.21,1.94,1.99,3.34,2.08l1.17.08-.52,1.06c-.61,1.25-.56,2.72.14,3.93.7,1.21,1.95,1.99,3.34,2.08l2.19.15h.12s.16,0,.16,0c1.59,0,3.06-.92,3.76-2.35l4.21-8.61c.61-1.25.56-2.72-.13-3.93-.7-1.21-1.94-1.99-3.34-2.08l-9.56-.66h-.12s-.17,0-.17,0h0Z"/>
        </g>
        <g>
          <path class="cls-6" d="m119.97,94.2l-9.56-.66c-.81-.06-1.53-.51-1.94-1.21-.41-.7-.44-1.56-.08-2.29l4.21-8.61c.41-.83,1.26-1.36,2.19-1.36h.16s2.19.15,2.19.15c.81.05,1.54.51,1.94,1.21.41.7.44,1.56.08,2.29l-1.66,3.39,3.76.26c.81.06,1.54.51,1.94,1.21s.43,1.56.08,2.29l-.96,1.97c-.42.84-1.25,1.36-2.19,1.36h-.17Z"/>
          <path class="cls-5" d="m114.79,81.82s.03,0,.05,0l2.19.15c.48.03.78.55.57.98l-2.35,4.81c-.21.44.08.95.57.98l5.34.37c.48.03.78.55.57.98l-.96,1.97c-.12.24-.35.38-.61.38-.02,0-.03,0-.05,0l-9.56-.66c-.48-.03-.78-.55-.57-.98l4.21-8.6c.12-.24.35-.38.61-.38m0-3.5c-1.59,0-3.06.92-3.76,2.35l-4.21,8.61c-.61,1.25-.56,2.72.14,3.93.7,1.21,1.94,1.99,3.34,2.08l9.56.66h.12s.17,0,.17,0c1.58,0,3.06-.92,3.76-2.34l.96-1.97c.61-1.25.57-2.72-.13-3.93-.7-1.21-1.94-1.99-3.34-2.08l-1.17-.08.52-1.06c.61-1.25.56-2.72-.14-3.93s-1.95-1.99-3.34-2.08l-2.19-.15h-.12s-.16,0-.16,0h0Z"/>
        </g>
      </g>
    </g>
    <g>
      <path class="cls-6" d="m104.49,99.4c-.7,0-1.35-.27-1.84-.76l-2.04-2.04c-.49-.49-.76-1.15-.76-1.84,0-.7.27-1.35.76-1.84l2.03-2.03c.49-.49,1.15-.76,1.84-.76s1.35.27,1.84.76l2.03,2.03c1.01,1.02,1.01,2.67,0,3.68l-2.04,2.04c-.49.49-1.14.76-1.84.76Z"/>
      <path class="cls-5" d="m104.49,91.87c.22,0,.44.08.6.25l2.03,2.03c.33.33.33.87,0,1.21l-2.03,2.03c-.17.17-.39.25-.6.25s-.44-.08-.6-.25l-2.03-2.03c-.33-.33-.33-.87,0-1.21l2.03-2.03c.17-.17.39-.25.6-.25m.01,3.89c.56,0,1.01-.45,1.01-1.01s-.45-1.01-1.01-1.01-1.01.45-1.01,1.01.45,1.01,1.01,1.01m-.01-7.39c-1.16,0-2.26.45-3.08,1.28l-2.03,2.03c-1.7,1.7-1.7,4.46,0,6.16l2.03,2.03c.82.82,1.92,1.28,3.08,1.28s2.26-.45,3.08-1.28l2.03-2.03c1.7-1.7,1.7-4.46,0-6.16l-2.03-2.03c-.82-.82-1.92-1.28-3.08-1.28h0Z"/>
    </g>
  </g>
</svg>