<?xml version="1.0" encoding="UTF-8"?>
<svg id="Warstwa_1" data-name="Warstwa 1" xmlns="http://www.w3.org/2000/svg" viewBox="0 0 147.84 125.09">
  <defs>
    <style>
      .cls-1 {
        stroke-width: 4px;
      }

      .cls-1, .cls-2, .cls-3 {
        fill: none;
        stroke-linecap: round;
        stroke-linejoin: round;
      }

      .cls-1, .cls-3 {
        stroke: #000;
      }

      .cls-4 {
        letter-spacing: .02em;
      }

      .cls-2 {
        stroke: #e41926;
      }

      .cls-5 {
        fill: #3a3a3a;
      }

      .cls-3 {
        stroke-width: 3px;
      }

      .cls-6 {
        fill: #e52428;
        font-family: SourceSansRoman-Bold, 'Source Sans Variable';
        font-size: 38px;
        font-variation-settings: 'wght' 700;
        font-weight: 700;
      }

      .cls-7 {
        fill: #1d1d1b;
      }
    </style>
  </defs>
  <ellipse class="cls-7" cx="58" cy="25.39" rx="4.36" ry="4.31"/>
  <ellipse class="cls-7" cx="58" cy="109.77" rx="4.36" ry="4.31"/>
  <ellipse class="cls-7" cx="36.9" cy="31.44" rx="4.31" ry="4.26"/>
  <ellipse class="cls-7" cx="21.46" cy="46.71" rx="4.31" ry="4.26"/>
  <ellipse class="cls-7" cx="15.81" cy="67.58" rx="4.31" ry="4.26"/>
  <ellipse class="cls-7" cx="100.19" cy="67.58" rx="4.31" ry="4.26"/>
  <ellipse class="cls-7" cx="21.46" cy="88.45" rx="4.31" ry="4.26"/>
  <ellipse class="cls-7" cx="94.54" cy="46.71" rx="4.31" ry="4.26"/>
  <ellipse class="cls-7" cx="36.9" cy="103.73" rx="4.31" ry="4.26"/>
  <ellipse class="cls-7" cx="79.1" cy="31.44" rx="4.31" ry="4.26"/>
  <line class="cls-1" x1="58" y1="35.01" x2="58" y2="71.88"/>
  <line class="cls-3" x1="84.53" y1="48.68" x2="54.5" y2="70.07"/>
  <line class="cls-2" x1="64.96" y1="67.18" x2="22.99" y2="74.99"/>
  <circle class="cls-5" cx="58" cy="67.58" r="3.5"/>
  <path class="cls-7" d="m79.21,113.54c-2.5,1.11-5.09,2.05-7.79,2.73C32.96,126.1-1.01,92.13,8.82,53.68c4.47-17.49,18.27-31.29,35.76-35.76,38.3-9.79,72.14,23.86,62.71,62.12h7.25c.95-4.16,1.46-8.49,1.46-12.94,0-27.66-19.36-50.78-45.27-56.58V3.64c0-2.01-1.63-3.64-3.64-3.64h-18.18c-2.01,0-3.64,1.63-3.64,3.64v6.87C15.02,17.29-6.32,47.69,1.7,81.35c4.91,20.61,21.05,36.9,41.63,41.95,18.56,4.55,36.15.15,49.39-9.76h-13.51Z"/>
  <text class="cls-6" transform="translate(84.4 108.78)"><tspan class="cls-4" x="0" y="0">x</tspan><tspan x="20.14" y="0">2</tspan></text>
</svg>